<svg xmlns="http://www.w3.org/2000/svg" width="165" height="161" viewBox="0 0 165 161"><defs><linearGradient id="a" x1="0%" y1="50%" y2="50%"><stop offset="0%" stop-color="gray" stop-opacity=".25"/><stop offset="54%" stop-color="gray" stop-opacity=".12"/><stop offset="100%" stop-color="gray" stop-opacity=".1"/></linearGradient><linearGradient id="b" x1=".004%" x2="100.004%" y1="50%" y2="50%"><stop offset="0%" stop-color="gray" stop-opacity=".25"/><stop offset="54%" stop-color="gray" stop-opacity=".12"/><stop offset="100%" stop-color="gray" stop-opacity=".1"/></linearGradient><linearGradient id="c" x1="0%" y1="49.988%" y2="49.988%"><stop offset="0%" stop-color="gray" stop-opacity=".25"/><stop offset="54%" stop-color="gray" stop-opacity=".12"/><stop offset="100%" stop-color="gray" stop-opacity=".1"/></linearGradient><linearGradient id="d" x1="50%" x2="50%" y1="100%" y2="0%"><stop offset="0%" stop-color="gray" stop-opacity=".25"/><stop offset="54%" stop-color="gray" stop-opacity=".12"/><stop offset="100%" stop-color="gray" stop-opacity=".1"/></linearGradient><linearGradient id="e" x1="8.875%" x2="121.877%" y1="45.439%" y2="72.65%"><stop offset="0%" stop-color="#4EB9F6"/><stop offset="100%" stop-color="#2683E9"/></linearGradient></defs><g fill="none" fill-rule="evenodd"><ellipse cx="80" cy="80.5" fill="#FBFCFD" opacity=".584" rx="80" ry="80.5"/><g fill-rule="nonzero"><path fill="#B7B6CC" d="M34.653 125.827c-.499-.492-.727-1.131-.632-1.766l9.076-60.933.753-5.061c.174-1.165 1.374-2.043 2.805-2.052l26.584-.145c.765-.004 1.495-.26 2.027-.711.531-.452.82-1.06.798-1.686l-.01-.232c-.026-.632.262-1.246.798-1.702.536-.455 1.274-.712 2.046-.712h27.935c1.568 0 2.84 1.042 2.844 2.328 0 .105-.009.21-.025.314-.107.657.131 1.32.655 1.824s1.285.801 2.092.818l26.83.562c.825.017 1.6.327 2.125.85.524.524.745 1.209.605 1.876l-13.413 64.279-.253 1.215a2.06 2.06 0 0 1-.41.87l-93.23.064z"/><path fill="url(#a)" d="M-2.326 16.989l48.369 4.238 1.296 15.77-48.37-4.24z" opacity=".5" transform="rotate(-55.36 95.343 -38.113)"/><path fill="#F9FAFB" d="M116.31 37.43l12.862 7.44L99.01 81.423l-12.863-7.44z"/><path fill="#C49EFF" d="M117.236 39.162l9.063 5.274-6.3 7.588-9.063-5.274z"/><path fill="#C49EFF" d="M110.136 48.306l9.093 5.26-6.282 7.613-9.093-5.26z" opacity=".5"/><path fill="#DECBFD" d="M102.55 57.498l9.093 5.26-6.282 7.613-9.093-5.26z" opacity=".3"/><path fill="url(#b)" d="M-7.55 16.171l45.506 2.308.708 16.183-45.506-2.308z" opacity=".5" transform="rotate(-73.71 78.454 -12.866)"/><path fill="#F9FAFB" d="M98.136 35.14l15.006 3.672-14.827 42.483-15.007-3.671z"/><path fill="#F89191" d="M100.106 36.367l10.609 2.596-3.1 8.882-10.609-2.596z"/><path fill="#F97878" d="M96.363 47.09l10.609 2.596-3.1 8.882-10.609-2.596z" opacity=".5"/><path fill="#F97878" d="M92.62 57.811l10.609 2.596-3.1 8.882-10.609-2.596z" opacity=".3"/><path fill="url(#c)" d="M-11.63 15.099l43.962.784.241 16.466-43.962-.785z" opacity=".5" transform="rotate(-85.4 70.342 -3.294)"/><path fill="#F9FAFB" d="M87.507 35.81l15.583 1.05-4.24 44.118-15.583-1.05z"/><path fill="#FFD48D" d="M89.724 36.678l11.017.742-.886 9.224-11.017-.742z"/><path fill="#FFD48D" d="M88.653 47.811l11.017.743-.887 9.223-11.016-.742z" opacity=".5"/><path fill="#FCE6C4" d="M87.584 58.948l11.016.742-.886 9.224-11.017-.742z" opacity=".3"/><path fill="url(#d)" d="M1.111.404l15.483.085.277 44.382-15.482-.085z" opacity=".5" transform="rotate(-2.61 857.796 -1736.787)"/><path fill="#FFF" d="M80.496 37.584l15.617-.596 2.408 44.214-15.618.596z"/><path fill="#8BAFFF" d="M82.824 38.21l11.04-.422.504 9.244-11.04.421z"/><path fill="#8BAFFF" d="M83.864 49.015l11.052-.462.553 9.253-11.052.463z" opacity=".5"/><path fill="#C5D7FF" d="M84.039 60.53l11.04-.422.504 9.244-11.041.422z" opacity=".3"/><path fill="#E6ECF8" d="M86 95.749l-13.662 4.502-19.968 6.576c-.755-1.2-1.866-2.822-3.24-4.758-4.73-6.677-12.556-17.063-19.524-26.19A2794.906 2794.906 0 0 0 15 56.909l4.89-1.2 39.953-9.882L86 95.75z"/><path fill="#000" d="M87 95.515l-13.847 4.482a123.807 123.807 0 0 1-23.528 1.809C44.832 95.16 36.9 84.823 29.838 75.738L20 55.656l40.49-9.829L87 95.515z" opacity=".1"/><path fill="#7A7897" d="M97 93.155s-21.448 10.745-53.471 8.314L18 48.76l12.234-1.78 42.295-6.152L96.53 92.13l.47 1.025z"/><path fill="#000" d="M95 92.705c-5.105.212-11.011.191-16.953-.41-6.43-.64-12.898-1.961-18.442-4.382-4.636-2.023-8.6-4.222-12.056-6.861C38.559 74.2 32.996 64.402 28 47.047l42.75-6.22L95 92.705z" opacity=".1"/><path fill="#F9FAFB" d="M113 88.3s-16.016 2.612-32.32 1.004c-6.445-.632-12.927-1.933-18.484-4.318-4.647-1.993-8.617-4.16-12.083-6.76C38.96 69.868 33.073 57.061 27 31.2c0 0 26.626 5.353 52.955-6.373-.008.009 8.867 46.139 33.045 63.473z"/><path fill="#000" d="M82 88.827c-6.536-.59-13.11-1.807-18.746-4.037-4.712-1.863-8.74-3.89-12.254-6.32 9.63-.6 11.012-4.643 11.012-4.643 7.139 8.699 19.988 15 19.988 15z" opacity=".1"/><path fill="#6C63FF" d="M40 41.507s22.7-1.18 29.039-5.68L70 38.668s-14.999 6.086-30 6.16v-3.32zM41 54.382s20.774-.986 36.47-7.555l.53 1.051s-12.455 6.3-37 7.95v-1.446zM44 59.382s20.775-.986 36.47-7.555l.53 1.051s-12.456 6.298-37 7.95v-1.446zM45 63.382s20.775-.986 36.471-7.555L82 56.878s-12.456 6.3-37 7.95v-1.446zM45 68.382s20.775-.986 36.47-7.555l.53 1.051s-12.456 6.3-37 7.95v-1.446zM47 72.382s20.775-.986 36.471-7.555L84 65.878s-12.456 6.298-37 7.95v-1.446z" opacity=".3"/><path fill="#F9FAFB" d="M101.325 85.89l18.617-24.246 45.083 24.265-18.617 24.248z"/><path fill="#B7B6CC" d="M111.28 85.741l5.223-6.883 1.934 1.029-5.223 6.884zM117.463 87.136l11.472-15.118 1.773.944-11.471 15.117zM121.252 89.15l11.472-15.118 1.774.944-11.472 15.117zM125.04 91.167l11.472-15.118 1.774.944-11.472 15.118zM128.96 94.09l11.552-15.046 1.765.95-11.551 15.046z"/><path fill="#FFF" d="M132.825 95.659l11.472-15.118 1.774.944L134.6 96.603zM136.407 97.211l11.471-15.117 1.774.943-11.472 15.118z"/><path fill="#B7B6CC" d="M152.315 88.623l2.97-3.914 4.676 2.487-2.97 3.915z"/><path fill="#000" d="M127.218 126.424c-.376.264-.85.406-1.337.403l-90.24-.327c-.49-.503-.714-1.156-.62-1.805l8.915-62.24 5.591-.052c.962-.008 1.809.538 2.06 1.33l1.045 3.288c.254.801 1.116 1.35 2.088 1.33l22.314-.456c1.147-.023 2.062-.824 2.062-1.803v-2.178c0-.987.93-1.791 2.088-1.802l30.92-.285c1.02-.008 1.902.608 2.095 1.463l13.674 61.006.089.392c.147.652-.139 1.32-.744 1.736z" opacity=".1"/><path fill="url(#e)" d="M66.92 39.112c-1.163.01-2.101.813-2.102 1.8v2.18c0 .978-.92 1.777-2.072 1.801l-22.44.457c-.978.02-1.846-.53-2.102-1.33l-1.054-3.287c-.253-.793-1.106-1.34-2.074-1.33l-29.974.274c-.621.005-1.21.24-1.608.645-.398.405-.568.937-.464 1.457l12.059 60.203c.172.864 1.053 1.497 2.086 1.5l94.693.345c.634.002 1.237-.237 1.642-.651.405-.414.571-.96.452-1.49L100.124 40.29c-.192-.855-1.08-1.472-2.106-1.463l-31.097.285z" transform="translate(15 24)"/><path fill="#F6F7F9" d="M66.103 94.462A.244.244 0 0 1 66 94.27c0-.073.037-.143.103-.193l2.661-2.166a.363.363 0 0 1 .237-.084c.09 0 .176.03.237.084l2.661 2.164c.065.05.101.12.101.193a.247.247 0 0 1-.1.192l-.304.247a.37.37 0 0 1-.237.082.37.37 0 0 1-.237-.082l-1.573-1.349v3.201c0 .071-.034.14-.095.19a.368.368 0 0 1-.233.078h-.438c-.182 0-.33-.12-.33-.268v-3.197L66.88 94.71a.37.37 0 0 1-.237.08.37.37 0 0 1-.237-.082l-.303-.247z"/><path fill="#F6F7F9" d="M69 89.827c2.761 0 5 2.015 5 4.5s-2.239 4.5-5 4.5-5-2.015-5-4.5c.002-2.484 2.24-4.498 5-4.5z"/></g></g></svg>